<?xml version="1.0" encoding="UTF-8" standalone="no"?>
<!DOCTYPE svg PUBLIC "-//W3C//DTD SVG 1.1//EN" "http://www.w3.org/Graphics/SVG/1.1/DTD/svg11.dtd">
<svg width="100%" height="100%" viewBox="0 0 216 216" version="1.1" xmlns="http://www.w3.org/2000/svg" xmlns:xlink="http://www.w3.org/1999/xlink" xml:space="preserve" xmlns:serif="http://www.serif.com/" style="fill-rule:evenodd;clip-rule:evenodd;stroke-linejoin:round;stroke-miterlimit:2;">
    <g transform="matrix(1,0,0,1,-1305.11,-784.877)">
        <g transform="matrix(1.77778,0,0,0.5625,0,0)">
            <g transform="matrix(1.01823,0,0,1.01823,-15.4102,-32.444)">
                <g transform="matrix(0.284828,0.900198,-0.284828,0.900198,674.98,-680.124)">
                    <rect x="1455.93" y="857.273" width="34.911" height="34.911" style="fill:white;"/>
                </g>
                <g transform="matrix(0.284828,0.900198,-0.284828,0.900198,655.093,-680.124)">
                    <rect x="1455.93" y="857.273" width="34.911" height="34.911" style="fill:white;"/>
                </g>
                <g transform="matrix(0.284828,0.900198,-0.284828,0.900198,635.205,-680.124)">
                    <rect x="1455.93" y="857.273" width="34.911" height="34.911" style="fill:white;"/>
                </g>
                <g transform="matrix(0.284828,0.900198,-0.284828,0.900198,615.318,-680.124)">
                    <rect x="1455.93" y="857.273" width="34.911" height="34.911" style="fill:white;"/>
                </g>
                <g transform="matrix(0.284828,0.900198,-0.284828,0.900198,595.431,-680.124)">
                    <rect x="1455.93" y="857.273" width="34.911" height="34.911" style="fill:white;"/>
                </g>
                <g transform="matrix(0.284828,0.900198,-0.284828,0.900198,575.543,-680.124)">
                    <rect x="1455.93" y="857.273" width="34.911" height="34.911" style="fill:white;"/>
                </g>
            </g>
        </g>
        <g transform="matrix(1.77778,0,0,0.5625,0,0)">
            <g transform="matrix(1.01823,0,0,1.01823,-15.4102,31.556)">
                <g transform="matrix(0.284828,0.900198,-0.284828,0.900198,674.98,-680.124)">
                    <rect x="1455.93" y="857.273" width="34.911" height="34.911" style="fill:white;"/>
                </g>
                <g transform="matrix(0.284828,0.900198,-0.284828,0.900198,655.093,-680.124)">
                    <rect x="1455.93" y="857.273" width="34.911" height="34.911" style="fill:white;"/>
                </g>
                <g transform="matrix(0.284828,0.900198,-0.284828,0.900198,635.205,-680.124)">
                    <rect x="1455.93" y="857.273" width="34.911" height="34.911" style="fill:white;"/>
                </g>
                <g transform="matrix(0.284828,0.900198,-0.284828,0.900198,615.318,-680.124)">
                    <rect x="1455.93" y="857.273" width="34.911" height="34.911" style="fill:white;"/>
                </g>
                <g transform="matrix(0.284828,0.900198,-0.284828,0.900198,595.431,-680.124)">
                    <rect x="1455.93" y="857.273" width="34.911" height="34.911" style="fill:white;"/>
                </g>
                <g transform="matrix(0.284828,0.900198,-0.284828,0.900198,575.543,-680.124)">
                    <rect x="1455.93" y="857.273" width="34.911" height="34.911" style="fill:white;"/>
                </g>
            </g>
        </g>
        <g transform="matrix(1.77778,0,0,0.5625,0,0)">
            <g transform="matrix(1.01823,0,0,1.01823,-15.4102,95.556)">
                <g transform="matrix(0.284828,0.900198,-0.284828,0.900198,674.98,-680.124)">
                    <rect x="1455.93" y="857.273" width="34.911" height="34.911" style="fill:white;"/>
                </g>
                <g transform="matrix(0.284828,0.900198,-0.284828,0.900198,655.093,-680.124)">
                    <rect x="1455.93" y="857.273" width="34.911" height="34.911" style="fill:white;"/>
                </g>
                <g transform="matrix(0.284828,0.900198,-0.284828,0.900198,635.205,-680.124)">
                    <rect x="1455.93" y="857.273" width="34.911" height="34.911" style="fill:white;"/>
                </g>
                <g transform="matrix(0.284828,0.900198,-0.284828,0.900198,615.318,-680.124)">
                    <rect x="1455.93" y="857.273" width="34.911" height="34.911" style="fill:white;"/>
                </g>
                <g transform="matrix(0.284828,0.900198,-0.284828,0.900198,595.431,-680.124)">
                    <rect x="1455.93" y="857.273" width="34.911" height="34.911" style="fill:white;"/>
                </g>
                <g transform="matrix(0.284828,0.900198,-0.284828,0.900198,575.543,-680.124)">
                    <rect x="1455.93" y="857.273" width="34.911" height="34.911" style="fill:white;"/>
                </g>
            </g>
        </g>
        <g transform="matrix(1.77778,0,0,0.5625,0,0)">
            <g transform="matrix(1.01823,0,0,1.01823,-15.4102,159.556)">
                <g transform="matrix(0.284828,0.900198,-0.284828,0.900198,674.98,-680.124)">
                    <rect x="1455.93" y="857.273" width="34.911" height="34.911" style="fill:white;"/>
                </g>
                <g transform="matrix(0.284828,0.900198,-0.284828,0.900198,655.093,-680.124)">
                    <rect x="1455.93" y="857.273" width="34.911" height="34.911" style="fill:white;"/>
                </g>
                <g transform="matrix(0.284828,0.900198,-0.284828,0.900198,635.205,-680.124)">
                    <rect x="1455.93" y="857.273" width="34.911" height="34.911" style="fill:white;"/>
                </g>
                <g transform="matrix(0.284828,0.900198,-0.284828,0.900198,615.318,-680.124)">
                    <rect x="1455.93" y="857.273" width="34.911" height="34.911" style="fill:white;"/>
                </g>
                <g transform="matrix(0.284828,0.900198,-0.284828,0.900198,595.431,-680.124)">
                    <rect x="1455.93" y="857.273" width="34.911" height="34.911" style="fill:white;"/>
                </g>
                <g transform="matrix(0.284828,0.900198,-0.284828,0.900198,575.543,-680.124)">
                    <rect x="1455.93" y="857.273" width="34.911" height="34.911" style="fill:white;"/>
                </g>
            </g>
        </g>
        <g transform="matrix(1.77778,0,0,0.5625,0,0)">
            <g transform="matrix(1.01823,0,0,1.01823,-15.4102,223.556)">
                <g transform="matrix(0.284828,0.900198,-0.284828,0.900198,674.98,-680.124)">
                    <rect x="1455.93" y="857.273" width="34.911" height="34.911" style="fill:white;"/>
                </g>
                <g transform="matrix(0.284828,0.900198,-0.284828,0.900198,655.093,-680.124)">
                    <rect x="1455.93" y="857.273" width="34.911" height="34.911" style="fill:white;"/>
                </g>
                <g transform="matrix(0.284828,0.900198,-0.284828,0.900198,635.205,-680.124)">
                    <rect x="1455.93" y="857.273" width="34.911" height="34.911" style="fill:white;"/>
                </g>
                <g transform="matrix(0.284828,0.900198,-0.284828,0.900198,615.318,-680.124)">
                    <rect x="1455.93" y="857.273" width="34.911" height="34.911" style="fill:white;"/>
                </g>
                <g transform="matrix(0.284828,0.900198,-0.284828,0.900198,595.431,-680.124)">
                    <rect x="1455.93" y="857.273" width="34.911" height="34.911" style="fill:white;"/>
                </g>
                <g transform="matrix(0.284828,0.900198,-0.284828,0.900198,575.543,-680.124)">
                    <rect x="1455.93" y="857.273" width="34.911" height="34.911" style="fill:white;"/>
                </g>
            </g>
        </g>
        <g transform="matrix(1.77778,0,0,0.5625,0,0)">
            <g transform="matrix(1.01823,0,0,1.01823,-15.4102,287.556)">
                <g transform="matrix(0.284828,0.900198,-0.284828,0.900198,674.98,-680.124)">
                    <rect x="1455.93" y="857.273" width="34.911" height="34.911" style="fill:white;"/>
                </g>
                <g transform="matrix(0.284828,0.900198,-0.284828,0.900198,655.093,-680.124)">
                    <rect x="1455.93" y="857.273" width="34.911" height="34.911" style="fill:white;"/>
                </g>
                <g transform="matrix(0.284828,0.900198,-0.284828,0.900198,635.205,-680.124)">
                    <rect x="1455.93" y="857.273" width="34.911" height="34.911" style="fill:white;"/>
                </g>
                <g transform="matrix(0.284828,0.900198,-0.284828,0.900198,615.318,-680.124)">
                    <rect x="1455.93" y="857.273" width="34.911" height="34.911" style="fill:white;"/>
                </g>
                <g transform="matrix(0.284828,0.900198,-0.284828,0.900198,595.431,-680.124)">
                    <rect x="1455.93" y="857.273" width="34.911" height="34.911" style="fill:white;"/>
                </g>
                <g transform="matrix(0.284828,0.900198,-0.284828,0.900198,575.543,-680.124)">
                    <rect x="1455.93" y="857.273" width="34.911" height="34.911" style="fill:white;"/>
                </g>
            </g>
        </g>
    </g>
</svg>
